<svg xmlns="http://www.w3.org/2000/svg" xmlns:xlink="http://www.w3.org/1999/xlink" viewBox="0,0,256,256" width="96px" height="96px" fill-rule="nonzero"><g transform="translate(53.33333,53.33333) scale(0.58333,0.58333)"><g fill-opacity="0" fill="#dddddd" fill-rule="nonzero" stroke="none" stroke-width="1" stroke-linecap="butt" stroke-linejoin="miter" stroke-miterlimit="10" stroke-dasharray="" stroke-dashoffset="0" font-family="none" font-weight="none" font-size="none" text-anchor="none" style="mix-blend-mode: normal"><path d="M-91.42857,347.42857v-438.85714h438.85714v438.85714z" id="bgRectangle"></path></g><g fill="none" fill-rule="nonzero" stroke="#fbfcfd" stroke-width="10.66667" stroke-linecap="butt" stroke-linejoin="miter" stroke-miterlimit="10" stroke-dasharray="" stroke-dashoffset="0" font-family="none" font-weight="none" font-size="none" text-anchor="none" style="mix-blend-mode: normal"><path d="M128,292.24494c-90.70998,0 -164.24494,-73.53497 -164.24494,-164.24494v0c0,-90.70998 73.53497,-164.24494 164.24494,-164.24494v0c90.70998,0 164.24494,73.53497 164.24494,164.24494v0c0,90.70998 -73.53497,164.24494 -164.24494,164.24494z" id="shape"></path></g><g fill="#ffffff" fill-rule="nonzero" stroke="none" stroke-width="1" stroke-linecap="butt" stroke-linejoin="miter" stroke-miterlimit="10" stroke-dasharray="" stroke-dashoffset="0" font-family="none" font-weight="none" font-size="none" text-anchor="none" style="mix-blend-mode: normal"><g transform="scale(10.66667,10.66667)"><path d="M8,3c-2.761,0 -5,2.239 -5,5v8c0,2.761 2.239,5 5,5h8c2.761,0 5,-2.239 5,-5v-8c0,-2.761 -2.239,-5 -5,-5zM18,5c0.552,0 1,0.448 1,1c0,0.552 -0.448,1 -1,1c-0.552,0 -1,-0.448 -1,-1c0,-0.552 0.448,-1 1,-1zM12,7c2.761,0 5,2.239 5,5c0,2.761 -2.239,5 -5,5c-2.761,0 -5,-2.239 -5,-5c0,-2.761 2.239,-5 5,-5zM12,9c-1.65685,0 -3,1.34315 -3,3c0,1.65685 1.34315,3 3,3c1.65685,0 3,-1.34315 3,-3c0,-1.65685 -1.34315,-3 -3,-3z"></path></g></g></g></svg>